<svg width="12" height="15" viewBox="0 0 12 15" fill="none" xmlns="http://www.w3.org/2000/svg">
<path fill-rule="evenodd" clip-rule="evenodd" d="M5 1.01351C5 0.452703 5.44667 0 6 0C6.55333 0 7 0.452703 7 1.01351V1.80405C9.09333 2.26351 10.6667 4.15541 10.6667 6.41892V10.473L12 11.8243V12.5L0 12.5L0 11.8243L1.33333 10.473L1.33333 6.41892C1.33333 4.15541 2.90667 2.26351 5 1.80405V1.01351ZM6.05024 3.08702C7.91324 3.08702 9.42524 4.58035 9.42524 6.42035L9.42524 11.087L2.67524 11.087L2.67524 6.42035C2.67524 4.58035 4.18724 3.08702 6.05024 3.08702ZM4.67316 12.9584C4.67316 13.6494 5.28811 14.2084 6.04816 14.2084C6.80821 14.2084 7.42316 13.6494 7.42316 12.9584H4.67316Z" fill="white"/>
</svg>
