<svg width="38" height="36" viewBox="0 0 38 36" fill="none" xmlns="http://www.w3.org/2000/svg">
<path fill-rule="evenodd" clip-rule="evenodd" d="M36.1236 12.1417L26.3294 11.0721C25.7298 10.9929 25.25 10.6364 25.0102 10.1214L20.9726 1.24784C20.213 -0.415947 17.8544 -0.415947 17.0949 1.24784L13.0173 10.1214C12.7774 10.6364 12.2577 11.0325 11.698 11.0721L1.90384 12.1417C0.0649225 12.3398 -0.654652 14.5581 0.704544 15.7862L7.98024 22.3621C8.41998 22.7582 8.61987 23.3524 8.49994 23.907L6.50112 33.454C6.14133 35.2366 8.0602 36.6231 9.65925 35.712L18.2142 30.8791C18.7339 30.6018 19.3335 30.6018 19.8532 30.8791L28.4082 35.712C30.0072 36.6231 31.9261 35.2366 31.5663 33.454L29.5675 23.907C29.4076 23.3524 29.6075 22.7582 30.0472 22.3621L37.3229 15.7862C38.6421 14.5978 37.9225 12.3398 36.1236 12.1417Z" fill="#58329E"/>
</svg>
