<svg width="16" height="15" viewBox="0 0 16 15" fill="none" xmlns="http://www.w3.org/2000/svg">
<path fill-rule="evenodd" clip-rule="evenodd" d="M15.2099 5.05904L11.0861 4.61338C10.8336 4.58037 10.6316 4.43181 10.5306 4.21724L8.83055 0.519933C8.51074 -0.173311 7.51764 -0.173311 7.19783 0.519933L5.48095 4.21724C5.37996 4.43181 5.16114 4.59687 4.92549 4.61338L0.801615 5.05904C0.0273358 5.14156 -0.275643 6.06589 0.29665 6.57757L3.3601 9.31754C3.54526 9.4826 3.62942 9.73018 3.57892 9.96126L2.73731 13.9392C2.58582 14.6819 3.39377 15.2596 4.06705 14.88L7.66913 12.8663C7.88795 12.7507 8.14043 12.7507 8.35925 12.8663L11.9613 14.88C12.6346 15.2596 13.4426 14.6819 13.2911 13.9392L12.4495 9.96126C12.3821 9.73018 12.4663 9.4826 12.6515 9.31754L15.7149 6.57757C16.2704 6.0824 15.9674 5.14156 15.2099 5.05904Z" fill="#CEDAE6"/>
</svg>
