<svg width="12" height="17" viewBox="0 0 12 17" fill="none" xmlns="http://www.w3.org/2000/svg">
<path fill-rule="evenodd" clip-rule="evenodd" d="M6 6V3.75C3.5175 3.75 1.5 5.7675 1.5 8.25C1.5 9.0075 1.6875 9.7275 2.025 10.35L0.93 11.445C0.345 10.5225 0 9.4275 0 8.25C0 4.935 2.685 2.25 6 2.25V0L9 3L6 6ZM9.975 6.15L11.07 5.055C11.655 5.9775 12 7.0725 12 8.25C12 11.565 9.315 14.25 6 14.25V16.5L3 13.5L6 10.5V12.75C8.4825 12.75 10.5 10.7325 10.5 8.25C10.5 7.4925 10.305 6.78 9.975 6.15Z" fill="black"/>
</svg>
